ffprobe version n2.6.1 Copyright (c) 2007-2015 the FFmpeg developers
  built with gcc 4.8 (Ubuntu 4.8.2-19ubuntu1)
  configuration: --prefix=/opt/ffmpeg --extra-cflags=-I/opt/ffmpeg/include --extra-ldflags=-L/opt/ffmpeg/lib --extra-libs=-ldl --enable-gpl --enable-libass --enable-libfdk-aac --enable-libfreetype --enable-libmp3lame --enable-libtheora --enable-libvorbis --enable-libvpx --enable-libx264 --enable-libx265 --enable-nonfree
  libavutil      54. 20.100 / 54. 20.100
  libavcodec     56. 26.100 / 56. 26.100
  libavformat    56. 25.101 / 56. 25.101
  libavdevice    56.  4.100 / 56.  4.100
  libavfilter     5. 11.102 /  5. 11.102
  libswscale      3.  1.101 /  3.  1.101
  libswresample   1.  1.100 /  1.  1.100
  libpostproc    53.  3.100 / 53.  3.100
Input #0, mov,mp4,m4a,3gp,3g2,mj2, from 'SENEM07 SALVADOR VOD_baixa1.mp4':
  Metadata:
    major_brand     : isom
    minor_version   : 512
    compatible_brands: isomiso2avc1mp41
    encoder         : Lavf55.36.101
  Duration: 00:23:33.16, start: 0.042667, bitrate: 470 kb/s
    Stream #0:0(und): Video: h264 (Constrained Baseline) (avc1 / 0x31637661), yuv420p, 640x360 [SAR 1:1 DAR 16:9], 399 kb/s, 29.97 fps, 29.97 tbr, 11988 tbn, 59.94 tbc (default)
    Metadata:
      handler_name    : VideoHandler
    Stream #0:1(eng): Audio: aac (LC) (mp4a / 0x6134706D), 48000 Hz, stereo, fltp, 64 kb/s (default)
    Metadata:
      handler_name    : SoundHandler
